#!OML:ASF C:\Vicon Data\Big\jianyuan-13\jianyuan\Session 1\Capture.male.ASF
:FULLY-SPECIFIED
:DEGREES
84
root -8.537022 17.967507 -17.784595 4.268186 8.938894 5.087496
lowerback -5.445634 1.256466 -4.715667 
upperback 2.828424 2.055871 -1.314892 
thorax 5.890908 0.824588 1.482819 
lowerneck -6.344921 -3.064509 2.713770 
upperneck 7.030107 -4.233118 -2.167377 
head 3.277539 -2.130097 -1.386115 
rclavicle 0.000000 0.000000 
rhumerus -34.002378 -15.390583 -81.959913 
rradius 40.054839 
rwrist 23.356885 
rhand -19.735085 -19.977389 
rfingers 0.000000 
rthumb 6.595588 -49.854627 
lclavicle 0.000000 0.000000 
lhumerus -38.668892 38.490814 65.880912 
lradius 24.712754 
lwrist -63.482482 
lhand -19.629169 1.310069 
lfingers 0.000000 
lthumb 6.697845 31.184110 
rfemur -10.208104 4.181753 21.116316 
rtibia 21.398955 
rfoot -16.642186 -6.546437 
rtoes -24.129541 
lfemur -74.541502 8.355050 -24.164931 
ltibia 102.419022 
lfoot -16.955411 -10.503440 
ltoes -39.320866 
85
root -8.530205 17.955807 -17.713965 4.226267 8.751910 4.909944
lowerback -5.574377 1.279093 -4.566194 
upperback 2.834470 2.083006 -1.226128 
thorax 5.970806 0.842404 1.498467 
lowerneck -6.356676 -3.039960 2.642040 
upperneck 7.074634 -4.192000 -2.202372 
head 3.297074 -2.113340 -1.384599 
rclavicle 0.000000 0.000000 
rhumerus -34.214171 -15.545063 -81.744609 
rradius 40.029640 
rwrist 23.141148 
rhand -19.731437 -19.960236 
rfingers 0.000000 
rthumb 6.599080 -49.837338 
lclavicle 0.000000 0.000000 
lhumerus -38.476829 38.432314 66.150151 
lradius 24.707760 
lwrist -63.314277 
lhand -19.692890 1.165207 
lfingers 0.000000 
lthumb 6.636262 31.041209 
rfemur -10.078394 4.205486 21.353102 
rtibia 21.687707 
rfoot -16.960930 -6.423799 
rtoes -24.278961 
lfemur -73.497205 8.188615 -23.891686 
ltibia 100.717315 
lfoot -17.108890 -10.304109 
ltoes -39.652244 
86
root -8.523449 17.943229 -17.645955 4.285390 8.605469 4.817821
lowerback -5.776124 1.278021 -4.503461 
upperback 2.804878 2.089329 -1.182923 
thorax 6.055274 0.847296 1.514580 
lowerneck -6.285179 -2.995284 2.687333 
upperneck 7.033394 -4.132390 -2.235347 
head 3.269301 -2.084004 -1.397941 
rclavicle 0.000000 0.000000 
rhumerus -34.475363 -15.984031 -81.460411 
rradius 39.955251 
rwrist 23.416490 
rhand -19.584379 -19.849591 
rfingers 0.000000 
rthumb 6.741010 -49.722255 
lclavicle 0.000000 0.000000 
lhumerus -38.260844 38.051126 66.666658 
lradius 24.896251 
lwrist -62.516018 
lhand -19.608668 1.370658 
lfingers 0.000000 
lthumb 6.717561 31.244106 
rfemur -10.064727 4.222575 21.478378 
rtibia 21.988479 
rfoot -17.314192 -6.300277 
rtoes -24.286835 
lfemur -72.536700 7.966581 -23.743905 
ltibia 98.836757 
lfoot -17.387389 -9.931951 
ltoes -39.809227 
87
root -8.518535 17.924856 -17.580960 4.310005 8.517865 4.616532
lowerback -5.893885 1.255774 -4.324869 
upperback 2.762579 2.052106 -1.124517 
thorax 6.083518 0.837133 1.474825 
lowerneck -6.270200 -2.901461 2.968315 
upperneck 7.063588 -4.015514 -2.470472 
head 3.271342 -2.028305 -1.520145 
rclavicle 0.000000 0.000000 
rhumerus -34.699940 -15.970794 -81.353370 
rradius 39.894688 
rwrist 23.426462 
rhand -19.438282 -19.899222 
rfingers 0.000000 
rthumb 6.882097 -49.767328 
lclavicle 0.000000 0.000000 
lhumerus -38.191287 38.031251 66.809175 
lradius 24.923695 
lwrist -62.266249 
lhand -19.840260 1.289850 
lfingers 0.000000 
lthumb 6.494033 31.170274 
rfemur -10.046176 4.197354 21.747557 
rtibia 22.309492 
rfoot -17.647219 -6.195795 
rtoes -24.547978 
lfemur -71.547575 7.817698 -23.590966 
ltibia 96.776806 
lfoot -17.636802 -9.326860 
ltoes -39.507107 
